<svg width="283" height="305" viewBox="0 0 283 305" fill="none" xmlns="http://www.w3.org/2000/svg">
<rect width="243" height="257" rx="20" fill="#373333"/>
<rect x="19" y="29" width="204" height="37" fill="#FF8000"/>
<rect x="194" y="40" width="15" height="15" fill="#D9D9D9"/>
<rect x="164" y="40" width="15" height="15" fill="#D9D9D9"/>
<path d="M0 104H243V237C243 248.046 234.046 257 223 257H20C8.95431 257 0 248.046 0 237V104Z" fill="#777171"/>
<rect x="185.835" y="199" width="37.1649" height="22" fill="#D9D9D9"/>
<rect x="129.557" y="199" width="37.1649" height="22" fill="#D9D9D9"/>
<rect x="73.2783" y="199" width="37.1649" height="22" fill="#D9D9D9"/>
<rect x="17" y="199" width="37.1649" height="22" fill="#D9D9D9"/>
<rect x="185.835" y="159" width="37.1649" height="22" fill="#D9D9D9"/>
<rect x="129.557" y="159" width="37.1649" height="22" fill="#D9D9D9"/>
<rect x="73.2783" y="159" width="37.1649" height="22" fill="#D9D9D9"/>
<rect x="17" y="159" width="37.1649" height="22" fill="#D9D9D9"/>
<rect x="185.835" y="119" width="37.1649" height="22" fill="#FC6161"/>
<rect x="129.557" y="119" width="37.1649" height="22" fill="#D9D9D9"/>
<rect x="73.2783" y="119" width="37.1649" height="22" fill="#D9D9D9"/>
<rect x="17" y="119" width="37.1649" height="22" fill="#D9D9D9"/>
<circle cx="209" cy="231" r="74" fill="#070841"/>
<path d="M251.727 218.773V235.909H208.636V218.773H251.727Z" fill="black"/>
<path d="M241.705 194.182V264H227.386L199.602 223.705H199.159V264H182.284V194.182H196.807L224.284 234.409H224.864V194.182H241.705Z" fill="white"/>
<path d="M241.705 194.182V264H227.386L199.602 223.705H199.159V264H182.284V194.182H196.807L224.284 234.409H224.864V194.182H241.705Z" fill="white"/>
<rect x="163" y="219" width="98" height="9" fill="white"/>
<rect x="163" y="232" width="98" height="9" fill="white"/>
</svg>
