<svg width="90" height="90" viewBox="0 0 90 90" fill="none" xmlns="http://www.w3.org/2000/svg">
<circle cx="45" cy="45" r="45" fill="white"/>
<path d="M52.5227 35.8182V41.9545H35.6818V35.8182H52.5227ZM39.1932 62V34.4886C39.1932 32.4659 39.5739 30.7898 40.3352 29.4602C41.0966 28.1193 42.1534 27.1193 43.5057 26.4602C44.858 25.7898 46.4205 25.4545 48.1932 25.4545C49.3523 25.4545 50.4432 25.5455 51.4659 25.7273C52.5 25.8977 53.267 26.0511 53.767 26.1875L52.4375 32.2898C52.1307 32.1875 51.7557 32.1023 51.3125 32.0341C50.8807 31.9659 50.4716 31.9318 50.0852 31.9318C49.108 31.9318 48.4375 32.1477 48.0739 32.5795C47.7102 33.0114 47.5284 33.6023 47.5284 34.3523V62H39.1932Z" fill="#3908FD"/>
</svg>
