<svg width="80" height="80" viewBox="0 0 80 80" fill="none" xmlns="http://www.w3.org/2000/svg">
<circle cx="40" cy="40" r="40" fill="white"/>
<path d="M20.642 52V25.8182H28.9773V52H20.642ZM24.8182 22.767C23.6477 22.767 22.642 22.3807 21.8011 21.608C20.9602 20.8239 20.5398 19.8807 20.5398 18.7784C20.5398 17.6875 20.9602 16.7557 21.8011 15.983C22.642 15.1989 23.6477 14.8068 24.8182 14.8068C26 14.8068 27.0057 15.1989 27.8352 15.983C28.6761 16.7557 29.0966 17.6875 29.0966 18.7784C29.0966 19.8807 28.6761 20.8239 27.8352 21.608C27.0057 22.3807 26 22.767 24.8182 22.767ZM42.6179 37.0682V52H34.2827V25.8182H42.2088V30.625H42.4986C43.0781 29.0227 44.0668 27.767 45.4645 26.858C46.8622 25.9375 48.527 25.4773 50.4588 25.4773C52.2997 25.4773 53.8963 25.892 55.2486 26.7216C56.6122 27.5398 57.669 28.6875 58.419 30.1648C59.1804 31.6307 59.5554 33.3466 59.544 35.3125V52H51.2088V36.9489C51.2202 35.4943 50.8509 34.358 50.1009 33.5398C49.3622 32.7216 48.3338 32.3125 47.0156 32.3125C46.1406 32.3125 45.3679 32.5057 44.6974 32.892C44.0384 33.267 43.527 33.8068 43.1634 34.5114C42.8111 35.2159 42.6293 36.0682 42.6179 37.0682Z" fill="#1804FF"/>
</svg>
