<svg width="243" height="298" viewBox="0 0 243 298" fill="none" xmlns="http://www.w3.org/2000/svg">
<rect x="104" width="27" height="40" fill="#FF8000"/>
<rect y="41" width="243" height="257" rx="20" fill="#373333"/>
<rect x="186.835" y="241" width="37.1649" height="22" fill="#D9D9D9"/>
<rect x="130.557" y="241" width="37.1649" height="22" fill="#D9D9D9"/>
<rect x="74.2783" y="241" width="37.1649" height="22" fill="#D9D9D9"/>
<rect x="18" y="241" width="37.1649" height="22" fill="#D9D9D9"/>
<rect x="186.835" y="201" width="37.1649" height="22" fill="#D9D9D9"/>
<rect x="130.557" y="201" width="37.1649" height="22" fill="#D9D9D9"/>
<rect x="74.2783" y="201" width="37.1649" height="22" fill="#D9D9D9"/>
<rect x="18" y="201" width="37.1649" height="22" fill="#D9D9D9"/>
<rect x="186.835" y="161" width="37.1649" height="22" fill="#D9D9D9"/>
<rect x="130.557" y="161" width="37.1649" height="22" fill="#D9D9D9"/>
<rect x="74.2783" y="161" width="37.1649" height="22" fill="#D9D9D9"/>
<rect x="18" y="161" width="37.1649" height="22" fill="#D9D9D9"/>
<rect x="186.835" y="77" width="37.1649" height="22" fill="#D9D9D9"/>
<rect x="130.557" y="77" width="37.1649" height="22" fill="#D9D9D9"/>
<rect x="74.2783" y="77" width="37.1649" height="22" fill="#D9D9D9"/>
<rect x="18" y="77" width="37.1649" height="22" fill="#D9D9D9"/>
<rect x="186.835" y="121" width="37.1649" height="22" fill="#D9D9D9"/>
<rect x="130.557" y="121" width="37.1649" height="22" fill="#D9D9D9"/>
<rect x="74.2783" y="121" width="37.1649" height="22" fill="#D9D9D9"/>
<rect x="18" y="121" width="37.1649" height="22" fill="#D9D9D9"/>
<path d="M21 89H39.8L53 72L35 101L21 89Z" fill="#FF8000"/>
<path d="M21 89H39.8L53 72L35 101L21 89Z" fill="#FF8000"/>
<rect x="45" width="27" height="40" fill="#070841"/>
<rect x="155" width="27" height="40" fill="#070841"/>
<path d="M133 173H151.8L165 156L147 185L133 173Z" fill="#FF8000"/>
<path d="M133 173H151.8L165 156L147 185L133 173Z" fill="#FF8000"/>
<path d="M79 255H97.8L111 238L93 267L79 255Z" fill="#FF8000"/>
<path d="M79 255H97.8L111 238L93 267L79 255Z" fill="#FF8000"/>
</svg>
